<?xml version="1.0" encoding="UTF-8" standalone="no"?>
<!-- Created with Inkscape (http://www.inkscape.org/) -->

<svg
   xmlns:dc="http://purl.org/dc/elements/1.1/"
   xmlns:cc="http://creativecommons.org/ns#"
   xmlns:rdf="http://www.w3.org/1999/02/22-rdf-syntax-ns#"
   xmlns:svg="http://www.w3.org/2000/svg"
   xmlns="http://www.w3.org/2000/svg"
   xmlns:sodipodi="http://sodipodi.sourceforge.net/DTD/sodipodi-0.dtd"
   xmlns:inkscape="http://www.inkscape.org/namespaces/inkscape"
   width="11.49302mm"
   height="11.209467mm"
   viewBox="0 0 40.723299 39.718583"
   id="svg4422"
   version="1.1"
   inkscape:version="0.91 r13725"
   sodipodi:docname="github-icon.svg">
  <defs
     id="defs4424" />
  <sodipodi:namedview
     id="base"
     pagecolor="#000000"
     bordercolor="#666666"
     borderopacity="1.0"
     inkscape:pageopacity="0"
     inkscape:pageshadow="2"
     inkscape:zoom="15.839192"
     inkscape:cx="25.201904"
     inkscape:cy="18.851565"
     inkscape:document-units="px"
     inkscape:current-layer="layer1"
     showgrid="false"
     fit-margin-top="0"
     fit-margin-left="0"
     fit-margin-right="0"
     fit-margin-bottom="0"
     inkscape:window-width="1920"
     inkscape:window-height="1037"
     inkscape:window-x="0"
     inkscape:window-y="0"
     inkscape:window-maximized="1" />
  <metadata
     id="metadata4427">
    <rdf:RDF>
      <cc:Work
         rdf:about="">
        <dc:format>image/svg+xml</dc:format>
        <dc:type
           rdf:resource="http://purl.org/dc/dcmitype/StillImage" />
        <dc:title></dc:title>
      </cc:Work>
    </rdf:RDF>
  </metadata>
  <g
     inkscape:label="Layer 1"
     inkscape:groupmode="layer"
     id="layer1"
     transform="translate(-185.3524,-326.78863)">
    <path
       inkscape:connector-curvature="0"
       id="path106"
       style="fill:#ffffff;fill-opacity:1;fill-rule:evenodd;stroke:none"
       d="m 205.7124,326.78863 c -11.2425,0 -20.36,9.11625 -20.36,20.3625 0,8.99625 5.8338,16.6275 13.925,19.32 1.0188,0.1875 1.39,-0.44125 1.39,-0.98125 0,-0.48375 -0.018,-1.76375 -0.028,-3.4625 -5.6637,1.23 -6.8587,-2.73 -6.8587,-2.73 -0.9263,-2.3525 -2.2613,-2.97875 -2.2613,-2.97875 -1.8487,-1.2625 0.14,-1.2375 0.14,-1.2375 2.0438,0.14375 3.1188,2.09875 3.1188,2.09875 1.8162,3.11125 4.7662,2.2125 5.9262,1.69125 0.185,-1.315 0.7113,-2.2125 1.2925,-2.72125 -4.5212,-0.51375 -9.275,-2.26125 -9.275,-10.06375 0,-2.2225 0.7938,-4.04125 2.0963,-5.46375 -0.21,-0.515 -0.9088,-2.58625 0.2,-5.38875 0,0 1.7087,-0.5475 5.5987,2.0875 1.6238,-0.4525 3.3663,-0.6775 5.0975,-0.68625 1.73,0.009 3.4713,0.23375 5.0975,0.68625 3.8875,-2.635 5.5938,-2.0875 5.5938,-2.0875 1.1112,2.8025 0.4125,4.87375 0.2037,5.38875 1.305,1.4225 2.0925,3.24125 2.0925,5.46375 0,7.8225 -4.7612,9.54375 -9.2962,10.0475 0.73,0.62875 1.3812,1.87125 1.3812,3.77 0,2.7225 -0.025,4.91875 -0.025,5.58625 0,0.545 0.3675,1.17875 1.4,0.98 8.085,-2.69875 13.9138,-10.325 13.9138,-19.31875 0,-11.24625 -9.1175,-20.3625 -20.3638,-20.3625" />
  </g>
</svg>
