<?xml version="1.0" encoding="UTF-8" standalone="no"?>
<!-- Created with Inkscape (http://www.inkscape.org/) -->

<svg
   xmlns:dc="http://purl.org/dc/elements/1.1/"
   xmlns:cc="http://creativecommons.org/ns#"
   xmlns:rdf="http://www.w3.org/1999/02/22-rdf-syntax-ns#"
   xmlns:svg="http://www.w3.org/2000/svg"
   xmlns="http://www.w3.org/2000/svg"
   xmlns:sodipodi="http://sodipodi.sourceforge.net/DTD/sodipodi-0.dtd"
   xmlns:inkscape="http://www.inkscape.org/namespaces/inkscape"
   id="svg2"
   version="1.1"
   inkscape:version="0.91 r13725"
   xml:space="preserve"
   width="48.310513"
   height="48.225086"
   viewBox="0 0 48.310512 48.225086"
   sodipodi:docname="linkedin-icon.svg"><metadata
     id="metadata8"><rdf:RDF><cc:Work
         rdf:about=""><dc:format>image/svg+xml</dc:format><dc:type
           rdf:resource="http://purl.org/dc/dcmitype/StillImage" /><dc:title></dc:title></cc:Work></rdf:RDF></metadata><defs
     id="defs6" /><sodipodi:namedview
     pagecolor="#000000"
     bordercolor="#666666"
     borderopacity="1"
     objecttolerance="10"
     gridtolerance="10"
     guidetolerance="10"
     inkscape:pageopacity="0"
     inkscape:pageshadow="2"
     inkscape:window-width="1920"
     inkscape:window-height="1037"
     id="namedview4"
     showgrid="false"
     fit-margin-top="0"
     fit-margin-left="0"
     fit-margin-right="0"
     fit-margin-bottom="0"
     inkscape:zoom="3.4962963"
     inkscape:cx="29.538046"
     inkscape:cy="23.767088"
     inkscape:window-x="0"
     inkscape:window-y="0"
     inkscape:window-maximized="1"
     inkscape:current-layer="g10" /><g
     id="g10"
     inkscape:groupmode="layer"
     inkscape:label="ink_ext_XXXXXX"
     transform="matrix(1.25,0,0,-1.25,-9.2089875,58.208)"><path
       inkscape:connector-curvature="0"
       id="path18"
       style="fill:#ffffff;fill-opacity:1;fill-rule:nonzero;stroke:none"
       d="m 46.0156,7.98633 -8.0058,0 0,12.53247 c 0,2.989 -0.0528,6.8328 -4.1621,6.8328 -4.168,0 -4.8039,-3.2578 -4.8039,-6.618 l 0,-12.74727 -8.0055,0 0,25.76997 7.6812,0 0,-3.5239 0.1106,0 c 1.0691,2.027 3.6816,4.1621 7.5781,4.1621 8.1106,0 9.6074,-5.3355 9.6074,-12.2746 z M 12.009,37.277 c -2.56681,0 -4.64181,2.0808 -4.64181,4.6433 0,2.5652 2.075,4.6461 4.64181,4.6461 2.5601,0 4.6414,-2.0809 4.6414,-4.6461 0,-2.5625 -2.0813,-4.6433 -4.6414,-4.6433 z m 4.0055,-29.29067 -8.01137,0 0,25.76997 8.01137,0 z"
       sodipodi:nodetypes="ccsssccccccsscsssssccccc" /></g></svg>