<?xml version="1.0" encoding="UTF-8" standalone="no"?>
<svg
   xmlns:dc="http://purl.org/dc/elements/1.1/"
   xmlns:cc="http://creativecommons.org/ns#"
   xmlns:rdf="http://www.w3.org/1999/02/22-rdf-syntax-ns#"
   xmlns:svg="http://www.w3.org/2000/svg"
   xmlns="http://www.w3.org/2000/svg"
   xmlns:sodipodi="http://sodipodi.sourceforge.net/DTD/sodipodi-0.dtd"
   xmlns:inkscape="http://www.inkscape.org/namespaces/inkscape"
   viewBox="0 0 73.099998 86.599998"
   id="svg2"
   version="1.1"
   inkscape:version="0.91 r13725"
   sodipodi:docname="stackoverflow-icon.svg"
   width="73.099998"
   height="86.599998">
  <metadata
     id="metadata14">
    <rdf:RDF>
      <cc:Work
         rdf:about="">
        <dc:format>image/svg+xml</dc:format>
        <dc:type
           rdf:resource="http://purl.org/dc/dcmitype/StillImage" />
        <dc:title></dc:title>
      </cc:Work>
    </rdf:RDF>
  </metadata>
  <defs
     id="defs12" />
  <sodipodi:namedview
     pagecolor="#000000"
     bordercolor="#666666"
     borderopacity="1"
     objecttolerance="10"
     gridtolerance="10"
     guidetolerance="10"
     inkscape:pageopacity="0"
     inkscape:pageshadow="2"
     inkscape:window-width="1920"
     inkscape:window-height="1037"
     id="namedview10"
     showgrid="false"
     fit-margin-top="0"
     fit-margin-left="0"
     fit-margin-right="0"
     fit-margin-bottom="0"
     inkscape:zoom="3.9333333"
     inkscape:cx="-17.092315"
     inkscape:cy="29.525827"
     inkscape:window-x="0"
     inkscape:window-y="0"
     inkscape:window-maximized="1"
     inkscape:current-layer="svg2" />
  <style
     id="style4">.st0{fill:#bcbbbb}.st1{fill:#f48023}</style>
  <path
     style="fill:#ffffff;fill-opacity:1"
     inkscape:connector-curvature="0"
     class="st0"
     d="m 61.8,78.9 0,-23.2 7.7,0 0,30.9 -69.5,0 0,-30.9 7.7,0 0,23.2 z"
     id="path6" />
  <path
     style="fill:#ffffff;fill-opacity:1"
     inkscape:connector-curvature="0"
     class="st1"
     d="m 16.2,53.5 37.8,7.9 1.6,-7.6 -37.8,-7.9 -1.6,7.6 z m 5,-18 35,16.3 3.2,-7 -35,-16.4 -3.2,7.1 z M 30.9,18.3 60.6,43 65.5,37.1 35.8,12.4 30.9,18.3 Z M 50.1,0 l -6.2,4.6 23,31 6.2,-4.6 -23,-31 z m -34.7,71.1 38.6,0 0,-7.7 -38.6,0 0,7.7 z"
     id="path8" />
</svg>
